# xmcd
#
# Track frame offsets:
#	150
#	13449
#	24693
#	35594
#	45876
#	58072
#	70703
#	86500
#	95619
#	110331
#	120986
#	131782
#	146482
#	161419
#	179530
#
# Disc length: 2565 seconds
#
# Revision: 2
# Processed by: cddbd v1.5PL3 Copyright (c) Steve Scherf et al.
# Submitted via: dBpowerAMP V4.0
#
DISCID=ca0a030f
DTITLE=Stratos Dionisiou - Ta Af8entika #2
DYEAR=1900
DGENRE=
TTITLE0=Ena Lepto Periptera
TTITLE1=Enas Aetos Gremistike
TTITLE2=Ena Vradi Pou 8a piw
TTITLE3=Zhsa kai de zhsame
TTITLE4=Etsi hmouna perastikos
TTITLE5=Zhtw akroash 8eou
TTITLE6=Gramma 8a stilw ston 8eo
TTITLE7=Htan pseftika
TTITLE8=H Axaristi
TTITLE9=Tha rixw rodozaxarh
TTITLE10=Kai pali magas 8a sai
TTITLE11=Kai ta lew se sena
TTITLE12=Kai ti den kanw
TTITLE13=Kai tote monos
TTITLE14=Exw ap adiko
EXTD=
EXTT0=
EXTT1=
EXTT2=
EXTT3=
EXTT4=
EXTT5=
EXTT6=
EXTT7=
EXTT8=
EXTT9=
EXTT10=
EXTT11=
EXTT12=
EXTT13=
EXTT14=
PLAYORDER=
